Coordinates
version=1
nRows=65
nColumns=12
inDegrees=yes

Units are S.I. units (second, meters, Newtons, ...)
Angles are in degrees

endheader
time	SC_y	SC_z	SC_x	AC_y	AC_z	AC_x	GH_y	GH_z	GH_yy	EL_x	PS_y
       0.0               -25.7          26.33          25.34          49.46         -16.92         -15.73         -20.26         -14.07         -152.3          107.5          130.3
   0.04208               -25.7          26.33          25.34          49.46         -16.92         -15.72         -20.27         -14.07         -152.3          107.5          130.3
   0.08416              -25.71          26.33          25.34          49.46         -16.92         -15.72         -20.29         -14.07         -152.3          107.5          130.3
    0.1262              -25.71          26.33          25.34          49.46         -16.92         -15.71         -20.31         -14.07         -152.3          107.5          130.3
    0.1683              -25.71          26.33          25.33          49.46         -16.92          -15.7         -20.33         -14.07         -152.3          107.5          130.3
    0.2104              -25.71          26.34          25.33          49.46         -16.92          -15.7         -20.35         -14.07         -152.3          107.5          130.3
    0.2525              -25.71          26.34          25.33          49.46         -16.91         -15.69         -20.37         -14.07         -152.3          107.5          130.3
    0.2946              -25.71          26.34          25.32          49.46         -16.91         -15.68          -20.4         -14.08         -152.3          107.5          130.3
    0.3366              -25.71          26.34          25.32          49.46         -16.91         -15.67         -20.42         -14.08         -152.3          107.5          130.3
    0.3787              -25.71          26.34          25.32          49.46         -16.91         -15.67         -20.45         -14.08         -152.2          107.5          130.3
    0.4208              -25.71          26.34          25.31          49.46          -16.9         -15.66         -20.48         -14.08         -152.2          107.5          130.3
    0.4629              -25.71          26.35          25.31          49.46          -16.9         -15.65         -20.51         -14.08         -152.2          107.5          130.3
     0.505              -25.71          26.35           25.3          49.46          -16.9         -15.64         -20.55         -14.08         -152.2          107.5          130.3
     0.547              -25.71          26.35           25.3          49.46          -16.9         -15.62         -20.58         -14.08         -152.2          107.5          130.3
    0.5891              -25.71          26.36          25.29          49.46         -16.89         -15.61         -20.62         -14.09         -152.2          107.5          130.3
    0.6312              -25.71          26.36          25.28          49.46         -16.89          -15.6         -20.67         -14.09         -152.1          107.5          130.3
    0.6733              -25.71          26.36          25.28          49.46         -16.88         -15.58         -20.71         -14.09         -152.1          107.5          130.3
    0.7154              -25.71          26.37          25.27          49.46         -16.88         -15.57         -20.76         -14.09         -152.1          107.5          130.3
    0.7574              -25.71          26.37          25.26          49.46         -16.87         -15.55         -20.82          -14.1         -152.1          107.5          130.3
    0.7995              -25.71          26.37          25.25          49.46         -16.87         -15.53         -20.88          -14.1         -152.0          107.5          130.3
    0.8416              -25.71          26.38          25.24          49.46         -16.86         -15.51         -20.95          -14.1         -152.0          107.5          130.3
    0.8837              -25.71          26.38          25.23          49.46         -16.86         -15.48         -21.02         -14.11         -152.0          107.5          130.3
    0.9258              -25.71          26.39          25.22          49.46         -16.85         -15.46         -21.11         -14.11         -151.9          107.5          130.3
    0.9678              -25.71           26.4           25.2          49.46         -16.84         -15.43          -21.2         -14.11         -151.9          107.5          130.3
      1.01              -25.71           26.4          25.19          49.46         -16.83          -15.4          -21.3         -14.12         -151.9          107.6          130.3
     1.052              -25.71          26.41          25.17          49.46         -16.82         -15.36         -21.41         -14.12         -151.8          107.6          130.3
     1.094              -25.71          26.42          25.15          49.46         -16.81         -15.32         -21.54         -14.13         -151.7          107.6          130.3
     1.136              -25.71          26.43          25.13          49.46          -16.8         -15.28         -21.68         -14.14         -151.7          107.6          130.3
     1.178              -25.71          26.44          25.11          49.46         -16.78         -15.23         -21.84         -14.15         -151.6          107.6          130.3
      1.22              -25.72          26.46          25.08          49.46         -16.77         -15.17         -22.02         -14.15         -151.5          107.6          130.3
     1.262              -25.72          26.47          25.05          49.46         -16.75          -15.1         -22.23         -14.16         -151.4          107.6          130.3
     1.304              -25.72          26.49          25.01          49.46         -16.73         -15.03         -22.47         -14.18         -151.3          107.7          130.3
     1.347              -25.72          26.51          24.97          49.46          -16.7         -14.94         -22.74         -14.19         -151.2          107.7          130.3
     1.389              -25.72          26.53          24.92          49.46         -16.67         -14.84         -23.06          -14.2         -151.0          107.7          130.3
     1.431              -25.72          26.56          24.87          49.47         -16.64         -14.72         -23.44         -14.22         -150.8          107.7          130.3
     1.473              -25.73          26.59           24.8          49.47          -16.6         -14.58         -23.88         -14.24         -150.6          107.8          130.3
     1.515              -25.73          26.63          24.72          49.47         -16.55         -14.41          -24.4         -14.27         -150.4          107.8          130.3
     1.557              -25.73          26.67          24.63          49.47          -16.5         -14.21         -25.03          -14.3         -150.1          107.9          130.3
     1.599              -25.74          26.73          24.51          49.47         -16.43         -13.97         -25.79         -14.34         -149.7          107.9          130.3
     1.641              -25.74           26.8          24.37          49.48         -16.35         -13.68         -26.72         -14.38         -149.3          108.0          130.3
     1.683              -25.75          26.88           24.2          49.48         -16.24         -13.31         -27.87         -14.44         -148.8          108.1          130.3
     1.725              -25.76          26.98          23.99          49.48         -16.12         -12.86          -29.3         -14.51         -148.1          108.2          130.3
     1.767              -25.77          27.11          23.71          49.49         -15.95         -12.29          -31.1         -14.59         -147.3          108.4          130.3
     1.809              -25.79          27.28          23.37           49.5         -15.75         -11.56         -33.39          -14.7         -146.2          108.5          130.3
     1.852               -25.8          27.49          22.93          49.51         -15.49         -10.63         -36.32         -14.84         -144.8          108.8          130.3
     1.894              -25.83          27.76          22.36          49.52         -15.15          -9.44         -40.09         -15.02         -143.1          109.1          130.3
     1.936              -25.86          28.11          21.64          49.53         -14.72         -7.917         -44.89         -15.26         -140.8          109.5          130.3
     1.978              -25.89          28.54          20.73          49.55         -14.18         -6.001         -50.94         -15.55         -138.0          110.0          130.3
      2.02              -25.94          29.07          19.63          49.57         -13.52         -3.666          -58.3          -15.9         -134.5          110.6          130.3
     2.062              -25.99          29.69          18.34           49.6         -12.76        -0.9594         -66.84         -16.31         -130.5          111.3          130.3
     2.104              -26.05          30.36          16.95          49.63         -11.93          1.971         -76.08         -16.76         -126.2          112.0          130.4
     2.146              -26.11          31.03          15.56          49.66          -11.1          4.902         -85.32         -17.21         -121.9          112.8          130.4
     2.188              -26.16          31.64          14.28          49.69         -10.34          7.608         -93.86         -17.62         -117.9          113.5          130.4
      2.23              -26.21          32.17          13.17          49.71         -9.679          9.943         -101.2         -17.97         -114.4          114.1          130.4
     2.272              -26.24          32.61          12.26          49.73         -9.138          11.86         -107.3         -18.26         -111.6          114.6          130.4
     2.314              -26.27          32.96          11.54          49.74         -8.708          13.38         -112.1         -18.49         -109.4          115.0          130.4
     2.356               -26.3          33.23          10.98          49.76         -8.372          14.58         -115.8         -18.68         -107.6          115.3          130.4
     2.399              -26.31          33.44          10.53          49.76         -8.109           15.5         -118.8         -18.82         -106.2          115.5          130.4
     2.441              -26.33           33.6          10.19          49.77         -7.904          16.23         -121.1         -18.93         -105.1          115.7          130.4
     2.483              -26.34          33.73          9.919          49.78         -7.743           16.8         -122.9         -19.01         -104.3          115.9          130.4
     2.525              -26.35          33.84          9.704          49.78         -7.615          17.26         -124.3         -19.08         -103.6          116.0          130.4
     2.567              -26.36          33.92          9.532          49.79         -7.512          17.62         -125.4         -19.14         -103.1          116.1          130.4
     2.609              -26.36          33.99          9.392          49.79         -7.429          17.91         -126.4         -19.18         -102.7          116.2          130.4
     2.651              -26.37          34.04          9.278          49.79         -7.361          18.16         -127.1         -19.22         -102.3          116.2          130.4
     2.693              -26.37          34.09          9.183          49.79         -7.305          18.35         -127.8         -19.25         -102.0          116.3          130.4
